<?xml version="1.0" encoding="UTF-8"?>
<!DOCTYPE svg PUBLIC "-//W3C//DTD SVG 1.1//EN" "http://www.w3.org/Graphics/SVG/1.1/DTD/svg11.dtd">
<svg xmlns="http://www.w3.org/2000/svg" version="1.1" width="128px" height="128px" style="shape-rendering:geometricPrecision; text-rendering:geometricPrecision; image-rendering:optimizeQuality; fill-rule:evenodd; clip-rule:evenodd" xmlns:xlink="http://www.w3.org/1999/xlink">
<g><path style="opacity:1" fill="#020203" d="M 9.5,-0.5 C 45.5,-0.5 81.5,-0.5 117.5,-0.5C 121.167,2.5 124.5,5.83333 127.5,9.5C 127.5,45.5 127.5,81.5 127.5,117.5C 124.5,121.167 121.167,124.5 117.5,127.5C 81.5,127.5 45.5,127.5 9.5,127.5C 5.83333,124.5 2.5,121.167 -0.5,117.5C -0.5,81.5 -0.5,45.5 -0.5,9.5C 2.53415,5.79917 5.86748,2.46583 9.5,-0.5 Z"/></g>
<g><path style="opacity:1" fill="#1a0545" d="M 10.5,3.5 C 45.8349,3.33335 81.1682,3.50001 116.5,4C 118.624,5.12173 120.457,6.62173 122,8.5C 123.653,44.4152 123.987,80.4152 123,116.5C 121.878,118.624 120.378,120.457 118.5,122C 82.5848,123.653 46.5848,123.987 10.5,123C 8.37623,121.878 6.5429,120.378 5,118.5C 3.34672,82.5848 3.01339,46.5848 4,10.5C 5.69406,7.64238 7.86073,5.30904 10.5,3.5 Z"/></g>
<g><path style="opacity:1" fill="#4a4a4a" d="M 34.5,48.5 C 34.5,50.1667 34.5,51.8333 34.5,53.5C 25.2016,44.7023 16.035,35.7023 7,26.5C 6.51722,25.552 6.35055,24.552 6.5,23.5C 7.55198,23.3505 8.55198,23.5172 9.5,24C 17.7017,32.369 26.035,40.5357 34.5,48.5 Z"/></g>
<g><path style="opacity:1" fill="#691317" d="M 92.5,44.5 C 92.5,43.5 92.5,42.5 92.5,41.5C 96.0496,37.7859 100.05,34.6193 104.5,32C 110.713,29.2636 116.213,30.0969 121,34.5C 123.827,45.2712 122.827,55.6046 118,65.5C 113.689,69.8246 108.523,71.3246 102.5,70C 94.9582,62.3223 94.6249,54.3223 101.5,46C 112.195,42.5875 117.028,46.4209 116,57.5C 115.516,46.7619 110.516,43.7619 101,48.5C 96.9856,56.0424 97.8189,62.8757 103.5,69C 113.234,69.2792 118.734,64.4459 120,54.5C 120.739,48.4422 120.406,42.4422 119,36.5C 114.376,31.7293 109.21,31.2293 103.5,35C 99.6662,38.0024 95.9995,41.1691 92.5,44.5 Z"/></g>
<g><path style="opacity:1" fill="#4d4d4d" d="M 90.5,33.5 C 91.4002,38.772 91.7335,44.1053 91.5,49.5C 72.8333,48.1667 54.1667,48.1667 35.5,49.5C 35.3342,44.8215 35.5008,40.1548 36,35.5C 37.0458,33.9095 38.2125,32.4095 39.5,31C 55.5,30.3333 71.5,30.3333 87.5,31C 88.3734,32.045 89.3734,32.8783 90.5,33.5 Z"/></g>
<g><path style="opacity:1" fill="#242836" d="M 90.5,33.5 C 89.3734,32.8783 88.3734,32.045 87.5,31C 71.5,30.3333 55.5,30.3333 39.5,31C 38.2125,32.4095 37.0458,33.9095 36,35.5C 35.5008,40.1548 35.3342,44.8215 35.5,49.5C 35.5,51.5 35.5,53.5 35.5,55.5C 35.2347,66.5383 35.568,77.5383 36.5,88.5C 35.7784,88.0825 35.2784,87.4158 35,86.5C 34.5002,75.505 34.3335,64.505 34.5,53.5C 34.5,51.8333 34.5,50.1667 34.5,48.5C 34.3342,43.8215 34.5008,39.1548 35,34.5C 36.0458,32.9095 37.2125,31.4095 38.5,30C 55.1667,29.3333 71.8333,29.3333 88.5,30C 89.8228,30.8159 90.4894,31.9826 90.5,33.5 Z"/></g>
<g><path style="opacity:1" fill="#242836" d="M 90.5,33.5 C 91.1174,33.6107 91.6174,33.944 92,34.5C 92.4966,36.8098 92.6633,39.1432 92.5,41.5C 92.5,42.5 92.5,43.5 92.5,44.5C 92.6666,58.504 92.4999,72.504 92,86.5C 91.7216,87.4158 91.2216,88.0825 90.5,88.5C 91.432,77.5383 91.7653,66.5383 91.5,55.5C 91.5,53.5 91.5,51.5 91.5,49.5C 91.7335,44.1053 91.4002,38.772 90.5,33.5 Z"/></g>
<g><path style="opacity:1" fill="#383938" d="M 91.5,49.5 C 91.5,51.5 91.5,53.5 91.5,55.5C 83.2517,56.4686 74.9183,56.8019 66.5,56.5C 73.989,55.671 81.6557,55.171 89.5,55C 90.5536,53.6124 90.7203,52.1124 90,50.5C 81.2419,49.84 72.4086,49.5067 63.5,49.5C 54.5914,49.5067 45.7581,49.84 37,50.5C 36.2797,52.1124 36.4464,53.6124 37.5,55C 45.3443,55.171 53.011,55.671 60.5,56.5C 52.0817,56.8019 43.7483,56.4686 35.5,55.5C 35.5,53.5 35.5,51.5 35.5,49.5C 54.1667,48.1667 72.8333,48.1667 91.5,49.5 Z"/></g>
<g><path style="opacity:1" fill="#010101" d="M 66.5,56.5 C 65.5036,72.3246 65.1703,88.3246 65.5,104.5C 64.1667,104.5 62.8333,104.5 61.5,104.5C 61.8297,88.3246 61.4964,72.3246 60.5,56.5C 53.011,55.671 45.3443,55.171 37.5,55C 36.4464,53.6124 36.2797,52.1124 37,50.5C 45.7581,49.84 54.5914,49.5067 63.5,49.5C 72.4086,49.5067 81.2419,49.84 90,50.5C 90.7203,52.1124 90.5536,53.6124 89.5,55C 81.6557,55.171 73.989,55.671 66.5,56.5 Z"/></g>
<g><path style="opacity:1" fill="#4e4e4e" d="M 35.5,55.5 C 43.7483,56.4686 52.0817,56.8019 60.5,56.5C 60.5,71.8333 60.5,87.1667 60.5,102.5C 55.6703,103.029 51.3369,101.862 47.5,99C 45.8659,98.5065 44.1992,98.3398 42.5,98.5C 41.391,98.4431 40.391,98.1098 39.5,97.5C 39.0075,95.1815 38.0075,93.1815 36.5,91.5C 36.5,90.5 36.5,89.5 36.5,88.5C 35.568,77.5383 35.2347,66.5383 35.5,55.5 Z"/></g>
<g><path style="opacity:1" fill="#4e4e4e" d="M 91.5,55.5 C 91.7653,66.5383 91.432,77.5383 90.5,88.5C 88.8368,90.4927 87.6701,92.8261 87,95.5C 85.6032,97.0703 84.1032,98.4036 82.5,99.5C 81.791,100.404 80.791,100.737 79.5,100.5C 75.2953,101.91 70.962,102.577 66.5,102.5C 66.5,87.1667 66.5,71.8333 66.5,56.5C 74.9183,56.8019 83.2517,56.4686 91.5,55.5 Z"/></g>
<g><path style="opacity:1" fill="#343438" d="M 60.5,56.5 C 61.4964,72.3246 61.8297,88.3246 61.5,104.5C 54.491,104.173 48.1577,102.173 42.5,98.5C 44.1992,98.3398 45.8659,98.5065 47.5,99C 51.3369,101.862 55.6703,103.029 60.5,102.5C 60.5,87.1667 60.5,71.8333 60.5,56.5 Z"/></g>
<g><path style="opacity:1" fill="#343538" d="M 66.5,56.5 C 66.5,71.8333 66.5,87.1667 66.5,102.5C 70.962,102.577 75.2953,101.91 79.5,100.5C 79.3893,101.117 79.056,101.617 78.5,102C 74.2177,103.157 69.8843,103.99 65.5,104.5C 65.1703,88.3246 65.5036,72.3246 66.5,56.5 Z"/></g>
<g><path style="opacity:1" fill="#691317" d="M 36.5,91.5 C 38.0075,93.1815 39.0075,95.1815 39.5,97.5C 36.3694,100.129 33.3694,102.962 30.5,106C 27.5303,106.022 26.3637,104.522 27,101.5C 30.3709,98.2975 33.5375,94.9641 36.5,91.5 Z"/></g>
<g><path style="opacity:1" fill="#373738" d="M 90.5,88.5 C 90.1854,90.2259 90.0187,91.8925 90,93.5C 91.7889,91.771 93.9556,91.1043 96.5,91.5C 96.9193,94.3245 95.9193,96.4912 93.5,98C 96.6667,101.167 99.8333,104.333 103,107.5C 103.49,108.793 103.657,110.127 103.5,111.5C 102.127,111.657 100.793,111.49 99.5,111C 96.3333,107.833 93.1667,104.667 90,101.5C 88.4912,103.919 86.3245,104.919 83.5,104.5C 83.2865,102.856 83.6198,101.356 84.5,100C 83.9056,99.5357 83.2389,99.369 82.5,99.5C 84.1032,98.4036 85.6032,97.0703 87,95.5C 87.6701,92.8261 88.8368,90.4927 90.5,88.5 Z"/></g>
</svg>
